<?xml version="1.0" encoding="UTF-8"?>
<svg id="Layer_2" data-name="Layer 2" xmlns="http://www.w3.org/2000/svg" xmlns:xlink="http://www.w3.org/1999/xlink" viewBox="0 0 916.8 355.77">
  <defs>
    <style>
      .cls-1 {
        fill: #145d9d;
      }

      .cls-1, .cls-2, .cls-3, .cls-4, .cls-5, .cls-6, .cls-7, .cls-8, .cls-9, .cls-10, .cls-11, .cls-12, .cls-13, .cls-14, .cls-15, .cls-16, .cls-17, .cls-18, .cls-19, .cls-20, .cls-21, .cls-22, .cls-23, .cls-24, .cls-25, .cls-26, .cls-27, .cls-28, .cls-29, .cls-30, .cls-31, .cls-32, .cls-33, .cls-34, .cls-35, .cls-36, .cls-37, .cls-38, .cls-39, .cls-40, .cls-41, .cls-42, .cls-43, .cls-44, .cls-45, .cls-46 {
        stroke-width: 0px;
      }

      .cls-2 {
        fill: #091143;
      }

      .cls-3 {
        fill: #b71f37;
      }

      .cls-4 {
        fill: url(#Dégradé_sans_nom_29-2);
      }

      .cls-5 {
        fill: url(#linear-gradient);
      }

      .cls-6 {
        fill: #ed1c24;
      }

      .cls-7 {
        fill: url(#linear-gradient-6);
      }

      .cls-8 {
        fill: #b8161b;
      }

      .cls-9 {
        fill: #31bad9;
      }

      .cls-10 {
        fill: #090738;
      }

      .cls-11 {
        fill: #ecd7ce;
      }

      .cls-12 {
        fill: #0b0935;
      }

      .cls-13 {
        fill: url(#linear-gradient-5);
      }

      .cls-14 {
        fill: #64c8f4;
      }

      .cls-15 {
        fill: url(#Dégradé_sans_nom_29-5);
      }

      .cls-16 {
        fill: #0a0c3f;
      }

      .cls-17 {
        fill: #0b0831;
      }

      .cls-18 {
        fill: url(#Dégradé_sans_nom_29-8);
      }

      .cls-19 {
        fill: #0a0638;
      }

      .cls-20 {
        fill: #fff;
      }

      .cls-21 {
        fill: url(#Dégradé_sans_nom_29-7);
      }

      .cls-22 {
        fill: #d32338;
      }

      .cls-23 {
        fill: url(#linear-gradient-2);
      }

      .cls-24 {
        fill: url(#Dégradé_sans_nom_29-3);
      }

      .cls-25 {
        fill: #d52237;
      }

      .cls-26 {
        fill: #080737;
      }

      .cls-27 {
        fill: url(#linear-gradient-7);
      }

      .cls-28 {
        fill: url(#Dégradé_sans_nom_2);
      }

      .cls-29 {
        fill: url(#linear-gradient-3);
      }

      .cls-30 {
        fill: url(#Dégradé_sans_nom_29-4);
      }

      .cls-31 {
        fill: #090737;
      }

      .cls-32 {
        fill: #42133b;
      }

      .cls-33 {
        fill: #0e4f8e;
      }

      .cls-34 {
        fill: url(#Dégradé_sans_nom_29);
      }

      .cls-35 {
        fill: #0d2c69;
      }

      .cls-36 {
        fill: url(#Dégradé_sans_nom_29-9);
      }

      .cls-37 {
        fill: #d52439;
      }

      .cls-38 {
        fill: #1982c4;
      }

      .cls-39 {
        fill: url(#Dégradé_sans_nom_29-11);
      }

      .cls-40 {
        fill: url(#Dégradé_sans_nom_34);
      }

      .cls-41 {
        fill: url(#linear-gradient-4);
      }

      .cls-42 {
        fill: #b51d36;
      }

      .cls-43 {
        fill: #0a0f41;
      }

      .cls-44 {
        fill: #612243;
      }

      .cls-45 {
        fill: url(#Dégradé_sans_nom_29-6);
      }

      .cls-46 {
        fill: url(#Dégradé_sans_nom_29-10);
      }
    </style>
    <linearGradient id="linear-gradient" x1="189.8" y1="165.12" x2="198.9" y2="161.71" gradientUnits="userSpaceOnUse">
      <stop offset=".11" stop-color="#ecd7ce"/>
      <stop offset=".83" stop-color="#ecd7ce" stop-opacity=".3"/>
    </linearGradient>
    <linearGradient id="Dégradé_sans_nom_2" data-name="Dégradé sans nom 2" x1="143.91" y1="30.81" x2="202.58" y2="124.64" gradientUnits="userSpaceOnUse">
      <stop offset="0" stop-color="#ff8089"/>
      <stop offset="1" stop-color="#ed1c24"/>
    </linearGradient>
    <linearGradient id="linear-gradient-2" x1="167.85" y1="80.12" x2="64.73" y2="28.57" gradientUnits="userSpaceOnUse">
      <stop offset="0" stop-color="#612243"/>
      <stop offset="1" stop-color="#ed1c24"/>
    </linearGradient>
    <linearGradient id="linear-gradient-3" x1="180.81" y1="105.52" x2="58.14" y2="68.78" xlink:href="#linear-gradient-2"/>
    <linearGradient id="linear-gradient-4" x1="240.98" y1="203.52" x2="277.78" y2="242.47" gradientUnits="userSpaceOnUse">
      <stop offset="0" stop-color="#38c2de"/>
      <stop offset="1" stop-color="#f3e1d5" stop-opacity="0"/>
    </linearGradient>
    <linearGradient id="linear-gradient-5" x1="99.83" y1="125.95" x2="203.52" y2="144.16" gradientUnits="userSpaceOnUse">
      <stop offset="0" stop-color="#27a6ce"/>
      <stop offset="1" stop-color="#145d9d"/>
    </linearGradient>
    <linearGradient id="linear-gradient-6" x1="126.24" y1="110.5" x2="228.67" y2="160.58" xlink:href="#linear-gradient-5"/>
    <linearGradient id="linear-gradient-7" x1="192.83" y1="150.52" x2="241.43" y2="155.85" xlink:href="#linear-gradient-5"/>
    <linearGradient id="Dégradé_sans_nom_34" data-name="Dégradé sans nom 34" x1="208.35" y1="206.63" x2="190.44" y2="219.24" gradientUnits="userSpaceOnUse">
      <stop offset="0" stop-color="#b8161b"/>
      <stop offset="1" stop-color="#ff1f26"/>
    </linearGradient>
    <linearGradient id="Dégradé_sans_nom_29" data-name="Dégradé sans nom 29" x1="90.76" y1="203.62" x2="1700.66" y2="-261.53" gradientUnits="userSpaceOnUse">
      <stop offset="0" stop-color="#1982c4"/>
      <stop offset="1" stop-color="#145d9d"/>
    </linearGradient>
    <linearGradient id="Dégradé_sans_nom_29-2" data-name="Dégradé sans nom 29" x1="100.03" y1="235.71" x2="1709.93" y2="-229.45" xlink:href="#Dégradé_sans_nom_29"/>
    <linearGradient id="Dégradé_sans_nom_29-3" data-name="Dégradé sans nom 29" x1="109.71" y1="269.23" x2="1719.61" y2="-195.92" xlink:href="#Dégradé_sans_nom_29"/>
    <linearGradient id="Dégradé_sans_nom_29-4" data-name="Dégradé sans nom 29" x1="116.6" y1="293.05" x2="1726.5" y2="-172.1" xlink:href="#Dégradé_sans_nom_29"/>
    <linearGradient id="Dégradé_sans_nom_29-5" data-name="Dégradé sans nom 29" x1="125.08" y1="322.41" x2="1734.98" y2="-142.74" xlink:href="#Dégradé_sans_nom_29"/>
    <linearGradient id="Dégradé_sans_nom_29-6" data-name="Dégradé sans nom 29" x1="132.01" y1="346.4" x2="1741.91" y2="-118.75" xlink:href="#Dégradé_sans_nom_29"/>
    <linearGradient id="Dégradé_sans_nom_29-7" data-name="Dégradé sans nom 29" x1="130.67" y1="341.77" x2="1740.57" y2="-123.38" xlink:href="#Dégradé_sans_nom_29"/>
    <linearGradient id="Dégradé_sans_nom_29-8" data-name="Dégradé sans nom 29" x1="136.03" y1="360.33" x2="1745.93" y2="-104.82" xlink:href="#Dégradé_sans_nom_29"/>
    <linearGradient id="Dégradé_sans_nom_29-9" data-name="Dégradé sans nom 29" x1="146.73" y1="397.33" x2="1756.63" y2="-67.82" xlink:href="#Dégradé_sans_nom_29"/>
    <linearGradient id="Dégradé_sans_nom_29-10" data-name="Dégradé sans nom 29" x1="161.73" y1="449.26" x2="1771.63" y2="-15.89" xlink:href="#Dégradé_sans_nom_29"/>
    <linearGradient id="Dégradé_sans_nom_29-11" data-name="Dégradé sans nom 29" x1="155.43" y1="427.46" x2="1765.33" y2="-37.69" xlink:href="#Dégradé_sans_nom_29"/>
  </defs>
  <g id="F.S_Dark">
    <g id="Layer_78" data-name="Layer 78">
      <g id="Layer_81_-_copie" data-name="Layer 81 - copie">
        <circle class="cls-20" cx="370.18" cy="256.82" r="24.54"/>
      </g>
    </g>
  </g>
  <g id="F.S_Light_BGL" data-name="F.S_Light BGL">
    <g id="Oeil">
      <path class="cls-31" d="m221.6,351.92c-58.69,18.55-119.64-32.53-106.13-96.12,9.48-44.63,53.35-73.13,97.98-63.65,6.64,1.41,12.92,3.58,18.77,6.41l-.3,29.85c-15.7,11.57-27.38,28.73-31.75,49.3-5.87,27.65,3.34,55.14,21.44,74.21Z"/>
      <path class="cls-17" d="m264.45,311.84c-13.78-.51-27.62-4.49-40.2-12.25-38.83-23.95-50.9-74.85-26.94-113.7,23.95-38.83,83.41,31.24,72.37,49.15-14.84,24.06-15.86,52.76-5.24,76.8Z"/>
      <path class="cls-16" d="m221.6,208.75l-19.38,56.52c-8.09-5.17-17.7-8.16-28.01-8.16-28.76,0-52.08,23.32-52.08,52.08,0,19.47,10.68,36.44,26.5,45.39-33.67-10.45-58.11-41.84-58.11-78.93,0-45.63,36.99-82.62,82.62-82.62,18.12,0,34.86,5.83,48.47,15.72Z"/>
      <path class="cls-19" d="m285.83,235.27c0,14.03-2.39,27.51-6.79,40.03-21.45-33.64-59.1-55.94-101.95-55.94-45.64,0-85.36,25.29-105.91,62.63-.15,2.37-.22,4.77-.22,7.18,0,8.63.9,17.05,2.63,25.16-3.85-4.45-7.39-9.18-10.55-14.17-11.96-18.74-18.89-41.01-18.89-64.9,0-66.74,54.11-120.85,120.85-120.85,58.11,0,106.64,41.02,118.22,95.68,1.73,8.11,2.63,16.54,2.63,25.16Z"/>
      <path class="cls-19" d="m133.66,174.46c-51.4,8.28-91.39,49.02-99.7,99.38-20.64-61.3,16.51-133.01,78.55-151.44l21.15,52.06Z"/>
      <path class="cls-19" d="m129.91,179.54c-42.79-10.86-91.85,5.73-119.04,38.25-2.48-48.54,27.48-96.2,72.13-115.28,9.98,16.4,36.58,60.09,46.9,77.03Z"/>
      <path class="cls-2" d="m33.22,254.98c-.13,6.44,2.36,12.6.74,18.82-17.19-51.99,6.16-112.91,53.61-140.2.02-.01,18.92,4.64,18.94,4.64-45.07,19.23-75.67,64.93-73.28,116.74Z"/>
      <path class="cls-2" d="m103.86,127.23c-45.48,9.52-81.7,45.09-92.37,89.88-.22.23-.41.46-.61.68-2.79-52.41,32.55-103.3,82.49-119.29l10.49,28.73Z"/>
      <path class="cls-17" d="m110.95,339.8c-31.09-21.85-51.42-58.01-51.42-98.91s21.44-79.02,53.98-100.66l23.29,106.98c-25.74,3.15-45.68,25.1-45.68,51.69,0,16.58,7.75,31.36,19.84,40.89Z"/>
      <path class="cls-43" d="m73.68,256.96c0,26.76,8.71,51.49,23.43,71.51-23.15-22.01-37.58-53.1-37.58-87.58,0-43.62,23.12-81.84,57.76-103.09l11.26,17.91c-33.04,21.56-54.87,58.85-54.87,101.25Z"/>
      <path class="cls-10" d="m148.63,354.58c-33.67-10.45-58.11-41.84-58.11-78.93,0-31.84,18.02-59.49,44.42-73.27.68,9.54,3.06,42.62,3.61,50.02-18.76,7.88-31.94,26.42-31.94,48.05s14.47,41.94,34.67,49.1c2.29,1.88,4.76,3.56,7.35,5.03Z"/>
      <polyline class="cls-19" points="292.79 200.84 277.67 201.65 278.65 196.6 292.79 200.84"/>
      <path class="cls-31" d="m244.19,259.94h0c-8.95,13.94-14.13,30.52-14.13,48.3,0,12.23,2.45,23.9,6.89,34.51-28.61-14.61-48.31-44.15-48.83-78.36,1.23-1.04,1.17-4.15,3.72-6.96,3.68-4.05,8.16-12.66,14.69-21.48,7.05-9.52,15.97-18.84,15.97-18.84,0,0,19.52,6.82,21.99,6.41,1.39,2.63,7.6,16.14-.31,36.42Z"/>
      <path class="cls-32" d="m233.14,265.3c-9.26,21.06-13.22,46.48-4,68.71-16.17-17.98-23.61-43.4-19.48-67.7.65-3.92,1.96-7.7,3.92-11.16,11.95-20.8,1.81,21.86,3.6,32.57,1.86-11.09,17.93-34.77,15.96-22.42Z"/>
      <path class="cls-35" d="m206.13,347.79c-10.8-1.06-20.54-5.35-28.32-11.87-9.11-7.62-15.53-18.27-17.79-30.26.06,5.73,1.07,11.28,2.87,16.47-7.01-9.64-10.77-21.7-9.81-34.5.9-12.11,5.88-22.94,13.47-31.26l.02-.02s.05-.05.07-.07c0,0,0-.01.01-.01,1.55-1.52,19.13-18.49,13.36-2.04-.57,1.61-7.8,14.48-9.5,19.38-1.47,4.19-2.4,8.64-2.75,13.27-1.42,19.1,7.64,36.57,22.33,46.73,2.69,3.6,5.83,6.86,9.37,9.68,2.09,1.66,4.32,3.18,6.66,4.5Z"/>
      <path class="cls-35" d="m206.13,347.79c-9.61-.93-18.37-4.44-25.67-9.79-5.7-9.09-8.65-20.01-7.8-31.52.33-4.39,1.19-8.61,2.51-12.61,2.97-8.93,8.27-16.72,15.12-22.73.84-.72,1.7-1.43,2.58-2.1-5.1,7.37-8.37,16.15-9.09,25.74-.86,11.51,2.09,22.42,7.78,31.5-4.42-4.11-8.12-8.96-10.9-14.35,2.79,15.24,12.26,28.33,25.47,35.85Z"/>
      <circle class="cls-11" cx="190.87" cy="171.56" r="13.72"/>
      <circle class="cls-12" cx="193.91" cy="168.91" r="11.78"/>
      <circle class="cls-38" cx="193.91" cy="168.91" r="9.61"/>
      <circle class="cls-12" cx="196.02" cy="168.91" r="5.41"/>
      <path class="cls-5" d="m198,164.56c-1.53.26-2.92.86-4.13,1.72-.74-.17-1.51-.26-2.31-.26-2.08,0-4.02.6-5.65,1.63,1.54-3.93,5.36-6.71,9.84-6.71.43,0,.85.02,1.26.08.11,1.26.46,2.46.98,3.55Z"/>
      <path class="cls-26" d="m207.29,62.42l-6.33-2.66c-7.9-15.94-18.44-30.33-31.03-42.62,14.64,12,26.99,26.69,36.28,43.32.36.65.72,1.3,1.08,1.96Z"/>
      <path class="cls-25" d="m234.61,156.7l-14.64-4.23c1.19-4.19-78.32-6.32-123.44-43.33-11.24-9.22-26.87-19.87-46-25.32-16.17-4.61-37.03-4.75-37.31-4.77,77.48-51.32,193.82-9.32,221.39,77.65Z"/>
      <path class="cls-25" d="m156.06,86.1l-28.81-10.95c-17.39-14.23-39.29-23.13-63.23-24.23,3.86-.42,7.8-.64,11.77-.64,31.88,0,60.53,13.83,80.27,35.82Z"/>
      <path class="cls-25" d="m231.11,155.38l-13.84-5.53c-1.84-1.78-3.72-3.47-5.65-5.13-15.17-13.05-32.97-23.15-52.5-29.36-2.33-6.5-5.11-12.79-8.29-18.84-16.53-31.56-43.89-56.54-77.14-70.03,2.65-.14,5.33-.2,8.01-.2,71.01,0,130.56,49.02,146.67,115.06,1.13,4.6,2.04,9.28,2.73,14.03Z"/>
      <path class="cls-6" d="m248.25,164.98c0,1.53-.04,3.05-.07,4.58l-14.2-.97c-6.87-9.17-14.8-17.51-23.55-24.89C201.92,77.46,145.43,22.2,79.13,15.09c89.09-11.33,169.77,60.15,169.11,149.89Z"/>
      <path class="cls-6" d="m260.31,146.99c0,4.7-.21,9.35-.64,13.94s-32.36-.73-36-4.64c.14-.88.26-1.76.36-2.65.67-5.12,1.08-10.31,1.22-15.58.02-.72.03-1.45.05-2.17.01-.61.01-1.24.01-1.87,0-26.71-6.93-51.8-19.1-73.56-14.37-25.73-36.07-46.82-62.26-60.46,66.69,15.66,116.35,75.53,116.35,146.99Z"/>
      <path class="cls-37" d="m288.84,118.43v.5c-.08,20.35-5.19,39.52-14.18,56.31l-10.46-3.28-23.46-7.34-3.32-1.05c.88-.72,1.74-1.46,2.58-2.22,4.51-3.94,8.67-8.26,12.45-12.92,15.15-18.57,24.23-42.29,24.23-68.13,0-6-.49-11.87-1.43-17.6,8.19,15.74,13.02,33.49,13.54,52.33.03,1.13.05,2.25.05,3.38Z"/>
      <path class="cls-37" d="m269.04,123.36c0,14.76-2.97,28.84-8.34,41.66l-14.47,2.06c4.69-14.59,7.23-30.15,7.23-46.29,0-29.4-8.41-56.84-22.94-80.04,23.56,19.78,38.53,49.45,38.53,82.62Z"/>
      <path class="cls-22" d="m252.93,147.84c4.26-11.59,6.58-24.11,6.58-37.17,0-21.42-6.24-41.37-16.99-58.15,15.91,18.26,25.78,41.92,26.47,67.85-3.98,9.98-9.42,19.22-16.06,27.46Z"/>
      <path class="cls-37" d="m260.31,146.99c0,2.94-.08,5.85-.25,8.75h-20.59c1.02-7.09,1.56-14.35,1.56-21.73,0-48.01-22.41-90.79-57.33-118.43,45.74,25.94,76.61,75.07,76.61,131.41Z"/>
      <path class="cls-3" d="m268.99,120.38c-2.01,5.06-4.43,9.95-7.17,14.6-2.65,4.51-5.62,8.81-8.89,12.86,4.26-11.59,6.58-24.11,6.58-37.17,0-21.42-6.24-41.37-16.99-58.15,10.68,12.26,18.63,26.94,22.92,43.12,2.11,7.92,3.32,16.21,3.55,24.73Z"/>
      <path class="cls-1" d="m186.9,138.05l-70.34,16.94C46.17,120.57,14.31,130.86,2.36,138.73c-3.23,2.13-2.68.97-1.09-.94,22.16-26.49,55.48-43.33,92.71-43.33s70.76,16.96,92.92,43.59Z"/>
      <path class="cls-26" d="m159.6,115.48c-20.21-6.54-41.98-8.68-63.06-6.35-23.94-18.07-53.34-28.72-83.31-30.09,49.92-17.19,110.95.91,146.37,36.44Z"/>
      <path class="cls-26" d="m118.52,59.07c-4.07-.71-8.19-1.25-12.37-1.62-5.04-2.47-10.31-4.54-15.76-6.19,9.87,1.33,19.3,3.99,28.13,7.81Z"/>
      <path class="cls-26" d="m152.62,69.21c-9.13-3.93-18.65-7.01-28.38-9.06-.01-.01-.02-.01-.03-.01-14.19-14.25-31.22-25.69-50.16-33.38,29.7,5.77,57.44,20.82,78.58,42.45Z"/>
      <path class="cls-26" d="m261.82,134.98c2.65-9.36,4.07-19.25,4.07-29.45,0-3.33-.15-6.62-.46-9.88,2.11,7.92,3.32,16.21,3.55,24.73-2.01,5.06-4.43,9.95-7.17,14.6Z"/>
      <path class="cls-26" d="m291.45,137.19c-.74,12.49-5.9,23.79-13.92,32.36-.94,1.01-1.93,1.99-2.96,2.92l-6.67-5.74c1.07-1.46,2.09-2.95,3.08-4.46,5.41-3.48,10.13-7.93,13.92-13.1,2.67-3.66,4.89-7.68,6.54-11.98Z"/>
      <path class="cls-26" d="m288.84,118.17v.26c0,10.62-1.37,20.92-3.94,30.74-1.87,7.07-4.34,13.87-7.37,20.37-1.02,2.2-2.12,4.36-3.28,6.49l-8.18-6.84c.63-.81,1.23-1.63,1.83-2.46,1.07-1.46,2.09-2.95,3.08-4.46,8.68-13.12,14.85-28.05,17.86-44.1Z"/>
      <path class="cls-28" d="m242.52,156.13h-16.59C221.68,82.63,164.84,23.22,92.48,14.98c79.8.33,144.99,62.55,150.04,141.15Z"/>
      <path class="cls-23" d="m149.59,67.93c.95.38,1.88.77,2.8,1.17-21.18-21.71-49.05-36.76-78.83-42.51,42.6,5.5,79.4,28.38,103.51,61.92-24.11-19.3-54.5-31.07-87.62-31.75,11.72-.26,23.47.9,34.56,3.28,8.74,1.85,17.32,4.5,25.58,7.89Z"/>
      <path class="cls-25" d="m211.83,100.63C186.42,57.16,128.76,21.88,79.13,15.09c57.66-1.77,109.41,36.51,132.69,85.54Z"/>
      <path class="cls-26" d="m249.61,170.7c-2.76.36-10.22,1.04-13.09,1.39-4.57-3.13-66.45-77.75-139.99-62.95-5.58-4.18-11.44-7.99-17.54-11.38,52.49-14.33,112.08,2.82,148.82,42.96,8.4,9.05,15.78,19.11,21.79,29.98Z"/>
      <path class="cls-25" d="m228.37,141.34c-.18-.2-.36-.4-.55-.6-13.25-26.78-34.19-49.06-59.96-63.94-23.67-27.03-56.84-45.52-94.29-50.3,2.7-.15,5.41-.22,8.13-.22,71,0,130.56,49.02,146.67,115.06Z"/>
      <path class="cls-29" d="m198.83,116.67c-22.66-13.59-49.19-21.41-77.54-21.41-.35,0-.71,0-1.06.01-5.83-5.38-12.08-10.61-18.7-15.03,37.13.18,71.09,14.05,97.3,36.43Z"/>
      <path class="cls-38" d="m279.51,237.55c0,6.44-.5,12.76-1.48,18.93-17.7-20.7-42.28-35.35-70.21-40.4,4.48-5.51,9.47-10.62,14.85-15.26,4.34-1.97,8.82-3.69,13.41-5.12,11.97,4.04,24.79,6.25,38.1,6.31,3.46,11.23,5.33,23.18,5.33,35.55Z"/>
      <path class="cls-41" d="m272.48,231.64c0,3.27-.13,6.51-.39,9.71-13.71-12.87-30.44-22.57-49.01-27.93-.34-2.67-.79-5.31-1.31-7.93,4.42-2.49,9.01-4.7,13.76-6.61,10.73,3.53,22.13,5.59,33.95,5.95,1.96,8.63,2.99,17.6,2.99,26.81Z"/>
      <path class="cls-44" d="m288.84,118.43v.5c-3.79,19.84-12.43,37.93-24.64,53.04-2.38-1.43-2.38-2.41-11.26-4.33l-11.71-.75-5.46-16.91c.79.04,39.95,2.74,53.02-34.93.03,1.13.05,2.25.05,3.38Z"/>
      <path class="cls-6" d="m292.79,200.84c-11.7-3.44-23.98-5.5-36.67-5.99-10.49-3.65-21.52-6.18-32.93-7.43,9.09-1.38,17.91-3.57,26.39-6.5-7.28-1.38-11.47-2.72-19.07-3,10.66-1.46,17.7-3.56,27.54-7.13-7.41-1.89-12.61-2.98-20.41-3.72,10.71-.39,18.72-2.14,28.74-4.67,1.63.9,3.2,1.89,4.71,2.95,1.6,1.13,3.14,2.34,4.61,3.64,3.85,3.4,7.18,7.36,9.89,11.76,2.81,4.56,4.93,9.59,6.23,14.95.41,1.68.74,3.39.97,5.13Z"/>
      <path class="cls-42" d="m276.56,197.05c11.01-14.24-8.63-29.85-14.01-33.73,1.29-.28,2.56-.59,3.84-.91,1.63.9,3.2,1.89,4.71,2.95,1.6,1.13,3.14,2.34,4.61,3.64,3.85,3.4,7.18,7.36,9.89,11.76,2.81,4.56,4.93,9.59,6.23,14.95.41,1.68.74,3.39.97,5.13-5.29-1.56-10.71-2.83-16.23-3.79Z"/>
      <path class="cls-19" d="m174.29,167l10.52-3.93c5.37-2.01,11.35-1.61,16.41,1.09l11.01,5.87,1.39-7.33-30.98-9.36-8.35,13.66Z"/>
      <path class="cls-33" d="m191.35,204.94c-10.55,2.3-20.19,7.01-28.34,13.52l9.18-1.09c-3.73,3.44-7.08,7.25-9.98,11.4-6.67,9.51-11.01,20.79-12.17,32.99,2.83-1.12,5.8-2,8.87-2.61-3.95,5.21-6.92,11.2-8.67,17.69-1.18,4.35-1.81,8.92-1.81,13.65,0,3.2.28,6.33.83,9.37-5.5-8.25-8.7-18.16-8.7-28.83,0-1.5.07-2.99.19-4.46-1.27.82-2.5,1.71-3.7,2.65.77-16.48,7.33-31.45,17.66-42.94l-6.69-5.65,26.4-26.4c8.22,4.12,17.38,6.66,27.06,7.18-3.51.92-6.89,2.09-10.15,3.53Z"/>
      <path class="cls-1" d="m168.09,170.02h-.14.14Z"/>
      <path class="cls-1" d="m107.14,305.08c0,.75,0,1.51.01,2.26-3.41-12.6-5.24-25.86-5.24-39.54,0-36.26,12.78-69.53,34.1-95.56l30.3,12.96c-35.98,27.59-59.17,71.02-59.17,119.87Z"/>
      <path class="cls-1" d="m138.29,288.44c0,6.73.55,13.33,1.62,19.76-7.58-15.8-11.83-33.49-11.83-52.19,0-28.82,10.08-55.28,26.94-76.05l24.7,17.4c-25.39,22.15-41.43,54.74-41.43,91.08Z"/>
      <path class="cls-1" d="m155.04,157.69c-3.97.97-7.9,2.09-11.78,3.38,0,0-.01-.01-.01,0-12.13,3.95-17.93,14.4-30.27,17.47-27.11,6.75-53.44,43.86-64.43,75.01,3.44-44.02,32.47-83.71,72.79-100.73,11.61.35,22.9,2.03,33.7,4.87Z"/>
      <path class="cls-13" d="m194.55,154.28c-10.68-2.87-21.83-4.59-33.3-5.03-25.08-18.55-56.11-29.52-89.7-29.52-9.07,0-17.96.8-26.6,2.33,14.91-4.94,30.85-7.6,47.43-7.6,39.4,0,75.29,15.09,102.17,39.82Z"/>
      <path class="cls-7" d="m232.64,170.4c-13.93-8.32-29.32-14.47-45.7-17.95-25.35-24.64-59.33-40.48-96.97-42.52,9.49-1.88,19.3-2.86,29.35-2.86,40.54,0,77.35,15.98,104.48,41.99.94.9,1.7,1.98,2.22,3.17,2.58,5.86,4.8,11.93,6.61,18.16Z"/>
      <path class="cls-1" d="m177.44,188.75c-17.23-6.99-9.78-18.13-9.37-18.71-.05-.01-.08-.01-.13-.01t-.02,0c-8.09-.8-16.49-.75-24.59.11,6.38-2.85,12.98-5.26,19.7-7.2-6.54-1.06-13.14-1.67-19.77-1.87,1.4-.47,2.8-.91,4.21-1.33-.27-1.06-.47-2.16-.66-3.24-27.74,11.68-50.59,33.88-63.01,61.37-1.29,2.81-2.46,5.68-3.52,8.59,22.98-22.82,56.99-36.24,90.81-34.21-1.46-.89-2.87-1.84-4.22-2.87,3.42-.56,7.03-.78,10.56-.63Z"/>
      <path class="cls-9" d="m151.04,180.21c-16.21,2.01-31.25,7.1-45.47,13.84,6.31-10.79,15.74-18.84,25.67-23.65-9.05-.38-17.11,0-30.07,3.53,14.7-12.72,23.67-14.25,41.19-13.78-3.24,1.07-6.31,2.78-8.68,4.46,6.54-.8,13.12-.11,19.34,1.6-4.85,1.75-9.17,3.61-13.82,5.85,6.85-.5,12.01.02,16.84,1.71-4.21,2.71-5.09,4.94-5,6.44Z"/>
      <g>
        <path class="cls-14" d="m191.36,153.46v-11.48l-41.01,7.23c1.66-.06,3.32-.08,5-.08,12.54,0,24.71,1.54,36.36,4.42-.12-.03-.23-.06-.35-.09Z"/>
        <path class="cls-14" d="m202.82,156.76c.26.09.53.17.79.26-.26-.09-.53-.17-.79-.26Z"/>
        <path class="cls-14" d="m208.75,158.86c.31.12.62.24.92.36-.31-.12-.62-.24-.92-.36Z"/>
      </g>
      <path class="cls-27" d="m214.83,161.31c-7.53-3.23-15.36-5.86-23.47-7.84v-11.48h.02s23.76,3.99,23.45,19.33Z"/>
      <path class="cls-9" d="m176.15,199.83c-18.8,13.62-33.53,32.54-41.99,54.56.08-18.01,4.12-35.08,11.28-50.4-8.4,5.72-16.2,12.27-23.25,19.53,6.34-16.45,16.08-30.49,29.11-41.9.57,1.81,2.4,3.17,4.12,4.94,2.32,2.38,5.42,4.65,8.54,6.65,5.04,3.21,10.15,5.68,12.19,6.62Z"/>
      <path class="cls-6" d="m225.41,178.83c-4.11,3.03-5.77,8.84-6.11,13.83-4.54,2.7-8.85,5.7-12.93,9.01,2.3.61,4.63,1.14,6.97,1.59-9.11,11.79-18.88,14.35-29.65,20.53-.05.06-.09.13-.13.19,5.38-1.71,11.16-2.1,16.89-2.61-1.12,1.4-2.19,2.83-3.2,4.29,6.01.36,11.97,1.27,17.81,2.64-3.98,3.32-7.73,6.91-11.21,10.74-.27.07-.55.16-.82.24-.1.34-.2.68-.3,1.02.36-.42.74-.84,1.12-1.26,5.57-1.6,11.22-2.78,17.07-3.47-6.92,6.69-12.95,14.31-17.88,22.65.18-5,.72-9.9,1.57-14.7-3.05,1.73-6.02,3.64-8.88,5.67,0,0-.01,0-.01.01-5.17,3.68-10.02,7.81-14.44,12.33,4.3-12.39,10.89-23.86,19.28-33.85-18.14,5.28-34.75,15.48-47.73,29.12,4.25-14.23,11.5-27.43,21.09-38.7-4.36.14-8.65.53-12.86,1.17,7.81-4.59,16.34-8.25,25.15-10.74-5.47-.85-10.9-2.14-16.1-3.8,16.8-4.96,32.07-14.01,44.55-26.18,3.58-.09,7.21,0,10.76.26Z"/>
      <path class="cls-8" d="m225.41,178.83s-.13.08-.35.25c-.09.07-.2.16-.33.27-.11.1-.24.22-.38.35-.1.09-.22.2-.33.33-.56.58-1.21,1.39-1.86,2.48-.09.16-.19.33-.28.5-.01.02-.02.03-.03.06-.08.14-.15.27-.22.42-.09.17-.18.35-.27.55-.17.36-.33.74-.49,1.15-.1.25-.19.51-.28.79-.13.33-.23.68-.33,1.05-.1.32-.18.65-.26.99-.09.34-.16.68-.23,1.05-.08.36-.15.74-.19,1.13-.02.1-.05.22-.06.32-.03.28-.08.58-.1.88-.05.41-.09.84-.11,1.27-4.54,2.7-8.85,5.7-12.93,9.01.8.22,1.62.42,2.44.61.92.22,1.86.43,2.78.63.59.13,1.17.24,1.75.35-.39.44-.75.86-1.1,1.27-.17.18-.32.35-.48.52-2.4-.65-4.94-1.24-7.41-1.71-4.35-.85-8.79-1.43-13.3-1.73,2.16-.84,4.28-1.75,6.36-2.74,6.44-3.02,12.54-6.66,18.21-10.85-2.31-1.4-4.68-2.71-7.1-3.92.69-.58,1.38-1.16,2.05-1.76.47-.4.93-.82,1.39-1.24.91-.83,1.82-1.68,2.71-2.55.93-.02,1.87-.03,2.8-.03,2.67,0,5.33.1,7.96.3Z"/>
      <path class="cls-40" d="m211.76,205.07c-7.69,8.44-12.33,10.78-12.63,10.91h-.01c-4.11,1.71-8.08,3.66-11.9,5.85,1.71-2.36,3.53-4.63,5.43-6.84,7.49-3.76,13.42-9.33,15.05-10.94,1.37.31,2.73.65,4.07,1.01Z"/>
      <path class="cls-8" d="m191.92,207.11c-1.92.42-3.82.9-5.7,1.43-5.52-.85-10.9-2.13-16.1-3.8,2.24-.66,4.46-1.39,6.64-2.2,4.89,1.88,9.96,3.41,15.17,4.56Z"/>
      <path class="cls-8" d="m196.19,229.07c-.3.1-.58.2-.88.31-16.3,5.7-30.81,15.19-42.47,27.44,3.63-12.09,9.33-23.29,16.68-33.18,1.41-1.89,2.87-3.73,4.4-5.52,1.17-.03,2.34-.06,3.53-.06.61,0,1.24,0,1.86.02-.67.63-4.96,4.75-4.56,7.26.2,1.43,1.95,2.34,6.74,1.8,2.53-.28,5.92-.99,10.39-2.23,1.4,1.42,2.85,2.81,4.31,4.15Z"/>
      <path class="cls-8" d="m220.93,235.59c-.18.16-.36.34-.55.53-2.07,2.03-4.06,4.14-5.99,6.34-4.23,4.89-8.05,10.17-11.35,15.77.18-5,.72-9.9,1.57-14.7-3.05,1.74-6.02,3.63-8.88,5.67,0,0-.01,0-.01.01-5.17,3.68-10.02,7.81-14.44,12.33,2.04-5.88,4.59-11.54,7.59-16.9,2.71-4.87,5.78-9.5,9.21-13.87.27-.36.57-.73.86-1.09,2.25.15,4.52.22,6.81.22.74,0,1.48-.01,2.22-.02,1.87-.03,3.73-.13,5.58-.26-2.61,2.24-5.11,4.62-7.49,7.1-.08.07-.14.14-.2.2-.68.71-1.34,1.42-2,2.15.58-.17,1.17-.34,1.76-.49.63-.18,1.25-.34,1.89-.5,4.37-1.1,8.85-1.95,13.42-2.48Z"/>
      <path class="cls-6" d="m328.87,196.43l-.05,70.46c-.01,15.53,12.59,28.12,28.13,28.09l48.98-.11.08-98.44h-77.13Zm38.53,76.22c-7.04,0-12.74-5.7-12.74-12.74s5.7-12.74,12.74-12.74,12.74,5.7,12.74,12.74-5.7,12.74-12.74,12.74Z"/>
      <polygon class="cls-34" points="405.93 103.1 405.93 81.57 328.8 81.6 328.8 180.08 356.54 180.08 356.54 146.3 400.02 146.3 400.02 124.77 356.54 124.77 356.54 103.1 405.93 103.1"/>
      <path class="cls-4" d="m478.43,180.08h29.83l-21.29-31.02c5.95-2.83,10.62-6.76,13.97-11.83,3.56-5.39,5.35-11.8,5.35-19.21s-1.78-14-5.35-19.49c-3.57-5.49-8.61-9.69-15.13-12.59-6.52-2.91-14.28-4.36-23.29-4.36h-44.74v98.51h27.58v-26.17h15.21l17.86,26.17Zm-4.57-72.76c2.86,2.53,4.29,6.1,4.29,10.7s-1.43,8.02-4.29,10.55c-2.86,2.53-7.2,3.8-13.02,3.8h-15.48v-29.19h15.48c5.82,0,10.15,1.61,13.02,4.14Z"/>
      <path class="cls-24" d="m581.11,81.57h-25.89l-41.02,98.51h26.81l7.25-19.14h39.4l7.25,19.14h27.35l-41.15-98.51Zm-25.07,58.82l11.92-31.5,11.92,31.5h-23.85Z"/>
      <polygon class="cls-30" points="697.63 81.57 697.63 134.07 654.15 81.57 631.21 81.57 631.21 180.08 658.51 180.08 658.51 127.58 701.99 180.08 724.93 180.08 724.93 81.57 697.63 81.57"/>
      <path class="cls-15" d="m788.1,180.04c-7.48,0-14.4-1.2-20.75-3.58-6.35-2.39-11.85-5.79-16.49-10.21-4.64-4.42-8.27-9.62-10.88-15.62-2.62-5.99-3.92-12.59-3.92-19.81s1.31-13.81,3.92-19.81c2.61-5.99,6.24-11.2,10.88-15.62,4.64-4.42,10.14-7.82,16.49-10.21,6.35-2.39,13.27-3.58,20.75-3.58,8.74,0,16.56,1.53,23.46,4.6,6.9,3.07,12.64,7.48,17.24,13.25l-17.04,15.41c-3.07-3.6-6.42-6.35-10.07-8.25-3.65-1.89-7.73-2.84-12.24-2.84-3.88,0-7.44.63-10.68,1.89-3.24,1.26-6.02,3.09-8.31,5.48-2.3,2.39-4.1,5.25-5.41,8.59-1.31,3.34-1.96,7.03-1.96,11.09s.65,7.75,1.96,11.09c1.31,3.34,3.11,6.2,5.41,8.59,2.3,2.39,5.07,4.21,8.31,5.48,3.25,1.26,6.81,1.89,10.68,1.89,4.51,0,8.59-.95,12.24-2.84,3.65-1.89,7.01-4.64,10.07-8.25l17.04,15.41c-4.6,5.68-10.34,10.07-17.24,13.18-6.9,3.11-14.72,4.66-23.46,4.66Z"/>
      <polygon class="cls-45" points="867.03 158.55 867.03 140.53 906.57 140.53 906.57 119.71 867.03 119.71 867.03 103.1 916.71 103.1 916.71 81.57 839.45 81.57 839.45 180.08 916.8 180.08 916.8 158.55 867.03 158.55"/>
      <path class="cls-21" d="m461.65,294.75c-7.74,0-15.19-.97-22.35-2.9-7.16-1.93-12.99-4.43-17.49-7.49l8.78-19.71c4.23,2.7,9.11,4.93,14.65,6.68s11.05,2.63,16.54,2.63c3.69,0,6.66-.34,8.91-1.01,2.25-.67,3.89-1.57,4.93-2.7,1.03-1.12,1.55-2.45,1.55-3.98,0-2.16-.99-3.87-2.97-5.13-1.98-1.26-4.55-2.3-7.7-3.11-3.15-.81-6.64-1.62-10.46-2.43-3.83-.81-7.65-1.84-11.48-3.11-3.83-1.26-7.32-2.9-10.46-4.93-3.15-2.03-5.72-4.68-7.7-7.97-1.98-3.29-2.97-7.45-2.97-12.49,0-5.67,1.55-10.8,4.66-15.39s7.76-8.28,13.98-11.07c6.21-2.79,13.95-4.19,23.22-4.19,6.21,0,12.31.7,18.3,2.09,5.99,1.4,11.32,3.44,16,6.14l-8.24,19.85c-4.5-2.43-8.96-4.25-13.37-5.47-4.41-1.22-8.69-1.82-12.83-1.82-3.69,0-6.66.38-8.91,1.15-2.25.77-3.87,1.78-4.86,3.04-.99,1.26-1.49,2.7-1.49,4.32,0,2.07.97,3.71,2.9,4.93,1.93,1.22,4.5,2.21,7.7,2.97,3.19.77,6.7,1.55,10.53,2.36,3.82.81,7.65,1.82,11.48,3.04,3.82,1.22,7.31,2.84,10.46,4.86,3.15,2.03,5.69,4.68,7.63,7.97,1.93,3.29,2.9,7.41,2.9,12.35,0,5.49-1.55,10.55-4.66,15.19-3.11,4.64-7.74,8.35-13.91,11.14-6.17,2.79-13.93,4.19-23.29,4.19Z"/>
      <path class="cls-18" d="m601.97,213.46c-3.57-5.49-8.61-9.69-15.13-12.59-6.52-2.91-14.28-4.36-23.29-4.36h-44.8v98.51h27.63v-26.16h17.17c9.01,0,16.77-1.07,23.29-4.02,6.52-2.96,11.56-7.15,15.13-12.6,3.56-5.44,5.35-11.87,5.35-19.28s-1.78-14-5.35-19.49Zm-27.09,30.04c-2.86,2.53-7.2,3.8-13.02,3.8h-15.48v-28.58h15.48c5.82,0,10.15,1,13.02,3.54,2.86,2.53,4.29,6.1,4.29,10.7s-1.43,8.02-4.29,10.55Z"/>
      <path class="cls-36" d="m719.92,226.15c-2.66-5.95-6.34-11.16-11.02-15.62-4.69-4.46-10.21-7.91-16.57-10.35s-13.37-3.65-21.03-3.65-14.56,1.22-20.96,3.65c-6.4,2.43-11.97,5.88-16.7,10.35s-8.41,9.67-11.02,15.62c-2.62,5.95-3.92,12.49-3.92,19.61s1.31,13.66,3.92,19.61c2.61,5.95,6.29,11.16,11.02,15.62,4.73,4.46,10.3,7.91,16.7,10.35,6.4,2.43,13.39,3.65,20.96,3.65s14.67-1.22,21.03-3.65,11.88-5.86,16.57-10.28c4.69-4.42,8.36-9.62,11.02-15.62,2.66-6,3.99-12.55,3.99-19.68s-1.33-13.66-3.99-19.61Zm-25.02,30.7c-1.31,3.34-3.11,6.2-5.41,8.59-2.3,2.39-5,4.22-8.12,5.48-3.11,1.26-6.47,1.89-10.07,1.89s-6.97-.63-10.08-1.89c-3.11-1.26-5.82-3.09-8.11-5.48-2.3-2.39-4.1-5.25-5.41-8.59-1.31-3.33-1.96-7.03-1.96-11.09s.65-7.87,1.96-11.16c1.31-3.29,3.11-6.13,5.41-8.52,2.3-2.39,5-4.21,8.11-5.48,3.11-1.26,6.47-1.89,10.08-1.89s6.96.63,10.07,1.89c3.11,1.26,5.82,3.09,8.12,5.48,2.3,2.39,4.1,5.23,5.41,8.52,1.31,3.29,1.96,7.01,1.96,11.16s-.66,7.76-1.96,11.09Z"/>
      <polygon class="cls-46" points="839.45 196.55 839.45 218.65 864.71 218.65 864.71 295.06 892.3 295.06 892.3 218.65 916.8 218.65 916.8 196.55 839.45 196.55"/>
      <path class="cls-39" d="m799.8,294.99h29.83l-21.29-31.02c5.95-2.83,10.62-6.76,13.97-11.83,3.56-5.39,5.35-11.8,5.35-19.21s-1.78-14-5.35-19.49c-3.57-5.49-8.61-9.69-15.13-12.59-6.52-2.91-14.28-4.36-23.29-4.36h-44.74v98.51h27.58v-26.17h15.21l17.86,26.17Zm-4.57-72.76c2.86,2.53,4.29,6.1,4.29,10.7s-1.43,8.02-4.29,10.55c-2.86,2.53-7.2,3.8-13.02,3.8h-15.48v-28.59h15.48c5.82,0,10.15,1,13.02,3.54Z"/>
    </g>
  </g>
</svg>